<?xml version="1.0" encoding="utf-8"?>
<!-- Generator: Adobe Illustrator 19.0.0, SVG Export Plug-In . SVG Version: 6.00 Build 0)  -->
<svg version="1.1" id="Camada_1" xmlns="http://www.w3.org/2000/svg" xmlns:xlink="http://www.w3.org/1999/xlink" x="0px" y="0px"
	 viewBox="0 0 258 52.9" style="enable-background:new 0 0 258 52.9;" xml:space="preserve">
<style type="text/css">
	.st0{fill:#FFFFFF;}
</style>
<g id="XMLID_591_">
	<g id="XMLID_1_">
		<path id="XMLID_2_" class="st0" d="M45.4,49.6V27.5c0-3.8,1.1-6.6,3.3-8.4c2.2-1.8,5.1-2.7,8.7-2.7c8,0,12.1,3.7,12.1,11.1v4
			c0,3.6-0.9,6.4-2.7,8.4c-1.8,2-4.4,3-7.9,3c-3.2,0-5.5-1-6.9-2.9v9.5c0,1.1-0.2,1.9-0.6,2.3c-0.4,0.4-1.1,0.6-2.3,0.6h-0.9
			c-1.1,0-1.9-0.2-2.3-0.6C45.6,51.5,45.4,50.7,45.4,49.6z M62.8,31.7v-4c0-1.8-0.4-3.1-1.1-3.8c-0.7-0.8-2.2-1.2-4.3-1.2
			c-2.2,0-3.6,0.4-4.4,1.2c-0.8,0.8-1.1,2.1-1.1,3.8v4c0,1.8,0.4,3,1.1,3.8c0.8,0.8,2.2,1.2,4.4,1.2c2.2,0,3.6-0.4,4.3-1.2
			C62.5,34.7,62.8,33.5,62.8,31.7z"/>
		<path id="XMLID_5_" class="st0" d="M85.5,42.9c-4.1,0-7.2-0.9-9.1-2.8c-2-1.9-3-4.7-3-8.4v-4c0-3.6,1-6.4,3.1-8.3
			c2.1-1.9,5.1-2.9,9-2.9c4.1,0,7.1,0.9,9.1,2.8c2,1.9,2.9,4.7,2.9,8.4v4c0,3.6-1,6.4-3.1,8.3C92.5,42,89.5,42.9,85.5,42.9z
			 M90.9,31.7v-4c0-1.8-0.4-3-1.1-3.8c-0.7-0.8-2.2-1.2-4.3-1.2c-2.2,0-3.6,0.4-4.4,1.2c-0.8,0.8-1.1,2.1-1.1,3.8v4
			c0,1.8,0.4,3,1.1,3.8c0.8,0.8,2.2,1.2,4.4,1.2c2.2,0,3.6-0.4,4.3-1.2C90.6,34.7,90.9,33.5,90.9,31.7z"/>
		<path id="XMLID_8_" class="st0" d="M107.1,19.9l1.9,15.2c0.1,0.9,0.3,1.5,0.5,1.7c0.2,0.3,0.6,0.4,1.1,0.4c0.5,0,0.9-0.1,1.1-0.4
			c0.2-0.3,0.4-0.8,0.5-1.7l1.6-13c0.2-1.8,0.8-3.1,1.7-3.8c0.9-0.8,2.3-1.2,4.4-1.2c1.9,0,3.3,0.4,4.3,1.1c0.9,0.7,1.5,2,1.8,3.9
			l1.6,13c0.1,0.9,0.3,1.4,0.5,1.7c0.2,0.3,0.6,0.4,1.1,0.4c0.5,0,0.9-0.1,1.1-0.4c0.2-0.3,0.4-0.8,0.5-1.7l1.9-15.2
			c0.2-1.1,0.5-1.9,0.9-2.3c0.4-0.4,1.2-0.6,2.3-0.6h1.1c1.1,0,1.9,0.2,2.2,0.6c0.3,0.4,0.4,1.1,0.2,2.2l-2.2,16
			c-0.3,2.4-1.1,4.2-2.2,5.3c-1.1,1.2-3.1,1.7-5.9,1.7c-2.5,0-4.2-0.6-5.2-1.7c-1-1.2-1.6-2.9-1.9-5.3l-1.4-11.5
			c-0.1-0.7-0.2-1.1-0.3-1.3c-0.1-0.2-0.3-0.3-0.6-0.3s-0.5,0.1-0.6,0.3c-0.1,0.2-0.2,0.6-0.3,1.3l-1.4,11.5
			c-0.3,2.4-0.9,4.1-1.9,5.3c-1,1.2-2.7,1.8-5.2,1.8c-2.8,0-4.8-0.6-5.9-1.7c-1.1-1.1-1.8-2.9-2.1-5.4l-2.2-16
			c-0.2-1.1-0.1-1.9,0.2-2.2c0.3-0.4,1.1-0.6,2.2-0.6h1.1c1.1,0,1.9,0.2,2.3,0.6C106.7,18,107,18.7,107.1,19.9z"/>
		<path id="XMLID_10_" class="st0" d="M165.2,27.4c0,0.7,0,1.4-0.1,2c-0.1,1.1-0.4,1.9-0.9,2.2c-0.4,0.4-1.2,0.5-2.4,0.5H149v0.8
			c0,1.3,0.5,2.3,1.6,2.9c1,0.6,2.7,0.9,5.1,0.9c1.9,0,3.9-0.2,6.1-0.7c1.1-0.2,1.8-0.2,2.1,0.2c0.4,0.3,0.5,1.1,0.5,2.3V39
			c0,1.1-0.2,1.9-0.5,2.3c-0.3,0.4-1.1,0.7-2.2,1c-1.7,0.4-3.7,0.7-6.2,0.7c-4.5,0-7.8-0.9-10-2.6c-2.1-1.8-3.2-4.6-3.2-8.4v-4
			c0-7.6,3.9-11.4,11.8-11.4C161.5,16.4,165.2,20.1,165.2,27.4z M149,26v0.8h9.9V26c0-2.6-1.7-3.8-5-3.8C150.7,22.2,149,23.4,149,26
			z"/>
		<path id="XMLID_13_" class="st0" d="M176.3,26.1v13.3c0,1.1-0.2,1.9-0.6,2.3c-0.4,0.4-1.1,0.6-2.3,0.6h-1c-1.1,0-1.9-0.2-2.3-0.6
			c-0.4-0.4-0.6-1.1-0.6-2.3V25.6c0-3,0.9-5.3,2.7-6.8c1.8-1.6,4.4-2.3,7.8-2.3h0.6c1,0,1.6,0.2,2,0.7c0.4,0.5,0.6,1.3,0.6,2.5v0.6
			c0,1.1-0.2,1.8-0.5,2.1c-0.3,0.3-1,0.4-2.1,0.3h-0.6c-1.5,0-2.6,0.3-3.1,0.8C176.5,24,176.3,24.9,176.3,26.1z"/>
		<path id="XMLID_15_" class="st0" d="M187,32.5v-5.1c0-6.8,3.7-10.3,11-10.3c1.8,0,3.4,0.3,4.8,0.9c0.4,0.2,0.7,0.3,0.9,0.5
			c0.1,0.2,0.2,0.4,0.2,0.9v0.3c0,0.8-0.4,1.1-1.1,0.9c-1.5-0.6-3.1-0.9-4.8-0.9c-3.1,0-5.3,0.7-6.5,2c-1.2,1.3-1.8,3.2-1.8,5.8v5.1
			c0,2.9,0.7,4.9,2,6c1.3,1.2,3.5,1.7,6.6,1.7c1.8,0,3.5-0.3,5.1-0.8c0.4-0.1,0.7-0.1,0.9,0c0.2,0.1,0.2,0.4,0.2,0.9v0.4
			c0,0.4-0.1,0.7-0.2,0.9c-0.1,0.1-0.4,0.3-0.9,0.5c-1.5,0.5-3.3,0.8-5.3,0.8c-3.8,0-6.6-0.8-8.4-2.5C187.9,38.6,187,36,187,32.5z"
			/>
		<path id="XMLID_17_" class="st0" d="M211.5,25.7v15.4c0,0.5-0.1,0.8-0.3,1c-0.2,0.2-0.5,0.3-1,0.3h-0.3c-0.5,0-0.8-0.1-1-0.3
			c-0.2-0.2-0.3-0.5-0.3-1V25.6c0-5.7,2.6-8.5,7.9-8.5c0.6,0,1.3,0.1,2,0.2c0.5,0.1,0.8,0.2,0.9,0.3c0.1,0.2,0.2,0.4,0.2,0.9v0.3
			c0,0.5-0.1,0.8-0.3,0.9c-0.2,0.1-0.5,0.2-0.9,0.1c-0.5-0.1-1.2-0.2-2-0.2c-2,0-3.3,0.5-4.1,1.5C211.9,22.2,211.5,23.7,211.5,25.7z
			"/>
		<path id="XMLID_19_" class="st0" d="M226.5,26.2v14.8c0,0.5-0.1,0.8-0.3,1c-0.2,0.2-0.5,0.3-1,0.3h-0.3c-0.5,0-0.8-0.1-1-0.3
			c-0.2-0.2-0.3-0.5-0.3-1V26.2c0-6.1,3.1-9.1,9.2-9.1c4.2,0,6.8,1.5,7.8,4.6c1.1-3.1,3.7-4.6,7.9-4.6c3.3,0,5.7,0.8,7.1,2.4
			c1.4,1.6,2.1,3.8,2.1,6.8v14.8c0,0.5-0.1,0.8-0.3,1c-0.2,0.2-0.5,0.3-1,0.3h-0.3c-0.5,0-0.8-0.1-1-0.3c-0.2-0.2-0.3-0.5-0.3-1
			V26.2c0-2.3-0.5-3.9-1.4-5c-0.9-1.1-2.6-1.6-5.1-1.6c-2.5,0-4.2,0.5-5.1,1.6c-0.9,1.1-1.4,2.7-1.4,5v14.8c0,0.5-0.1,0.8-0.3,1
			c-0.2,0.2-0.5,0.3-1,0.3h-0.3c-0.5,0-0.8-0.1-1-0.3c-0.2-0.2-0.3-0.5-0.3-1V26.2c0-2.3-0.5-3.9-1.4-5c-0.9-1.1-2.6-1.6-5.1-1.6
			c-2.4,0-4.1,0.5-5.1,1.6C227,22.4,226.5,24,226.5,26.2z"/>
	</g>
	<g id="XMLID_540_">
		<path id="XMLID_539_" class="st0" d="M16.8,37.2l8-36.6c0,0,0.4-1.4,1.4,0l11.3,22.7c0,0,0.9,1.5,0,2.2L16.8,37.2z"/>
		<path id="XMLID_483_" class="st0" d="M19.6,18.4l-7.4,33.9c0,0-0.4,1.3-1.3,0l-10.5-21c0,0-0.8-1.4,0-2L19.6,18.4z"/>
	</g>
</g>
</svg>
